<svg width="28" height="28" viewBox="0 0 28 28" fill="none" xmlns="http://www.w3.org/2000/svg">
<path d="M14 7.4375C14 11.0619 11.1219 14 7.57145 14H1.14288V7.4375C1.14288 3.81313 4.02105 0.875 7.57145 0.875C11.1219 0.875 14 3.81313 14 7.4375Z" fill="#2C5BF7"/>
<path d="M14 20.5625C14 16.9381 16.8782 14 20.4286 14H26.8571V20.5625C26.8571 24.1869 23.979 27.125 20.4286 27.125C16.8782 27.125 14 24.1869 14 20.5625Z" fill="#2C5BF7"/>
<path d="M1.14288 20.5625C1.14288 24.1869 4.02105 27.125 7.57145 27.125H14V20.5625C14 16.9381 11.1219 14 7.57145 14C4.02105 14 1.14288 16.9381 1.14288 20.5625Z" fill="#2C5BF7"/>
<path d="M26.8571 7.4375C26.8571 3.81313 23.979 0.875 20.4286 0.875H14V7.4375C14 11.0619 16.8782 14 20.4286 14C23.979 14 26.8571 11.0619 26.8571 7.4375Z" fill="#F26E6E"/>
</svg>
